<svg width="26" height="26" viewBox="0 0 26 26" fill="none" xmlns="http://www.w3.org/2000/svg">
<g opacity="0.5">
<path d="M21.0856 13.0529C21.0856 13.5066 20.7144 13.8778 20.2607 13.8778H8.21764L11.9502 17.6309C12.2801 17.9609 12.2801 18.4764 11.9502 18.8064C11.7852 18.9714 11.579 19.0538 11.3728 19.0538C11.1665 19.0538 10.9397 18.9714 10.7953 18.8064L5.66055 13.651C5.3306 13.321 5.3306 12.8055 5.66055 12.4961L10.7953 7.34072C11.1253 7.01077 11.6408 7.01077 11.9708 7.34072C12.3007 7.67067 12.3007 8.18621 11.9708 8.51616L8.21764 12.2281H20.2607C20.7144 12.2281 21.0856 12.5993 21.0856 13.0529Z" fill="#383836"/>
</g>
</svg>
