<svg width="28" height="28" viewBox="0 0 28 28" fill="none" xmlns="http://www.w3.org/2000/svg">
<path d="M10.567 8.19187C10.7726 8.19738 11.0005 8.20849 11.2174 8.68992C11.3612 9.01041 11.6035 9.60043 11.8009 10.081C11.9544 10.455 12.0808 10.7628 12.1124 10.8258C12.1847 10.9696 12.2292 11.1356 12.1347 11.3293C12.1235 11.3521 12.113 11.374 12.1029 11.395C12.0271 11.5523 11.9731 11.6643 11.8456 11.8107C11.7932 11.8709 11.7386 11.9368 11.6842 12.0026C11.5885 12.1182 11.4935 12.2331 11.412 12.3143C11.2674 12.458 11.1173 12.6131 11.284 12.9008C11.4509 13.1885 12.0346 14.1347 12.8964 14.8983C13.8228 15.7231 14.6283 16.0706 15.0355 16.2463C15.1146 16.2805 15.1786 16.3081 15.2256 16.3315C15.5148 16.4753 15.6871 16.4532 15.8539 16.2596C16.0207 16.0658 16.5766 15.4184 16.7712 15.1307C16.9602 14.843 17.1548 14.8873 17.4217 14.9869C17.6885 15.0864 19.1117 15.7836 19.4007 15.9275C19.4579 15.9559 19.5113 15.9816 19.5609 16.0053C19.762 16.1018 19.8987 16.1673 19.9567 16.2651C20.029 16.3868 20.029 16.9623 19.7899 17.6373C19.5454 18.3124 18.3667 18.9598 17.833 19.0096C17.7825 19.0144 17.7322 19.0204 17.6804 19.0267C17.1914 19.0859 16.5705 19.161 14.3584 18.2902C11.6327 17.2184 9.83341 14.559 9.46964 14.0213C9.44092 13.9789 9.42115 13.9496 9.41057 13.9355L9.40442 13.9272C9.23891 13.7058 8.2264 12.3509 8.2264 10.9531C8.2264 9.61572 8.88522 8.91945 9.18571 8.60186C9.20476 8.58173 9.22236 8.56313 9.23827 8.54598C9.50508 8.25828 9.81646 8.18636 10.011 8.18636C10.2057 8.18636 10.4002 8.18636 10.567 8.19187Z" fill="black"/>
<path fill-rule="evenodd" clip-rule="evenodd" d="M3.03532 24.1071C2.94337 24.4408 3.24735 24.7489 3.58231 24.6614L8.76017 23.309C10.3946 24.1943 12.2348 24.6646 14.1084 24.6646H14.1139C20.2792 24.6646 25.3049 19.668 25.3049 13.526C25.3049 10.5491 24.1429 7.74918 22.0304 5.64646C19.9179 3.54384 17.1104 2.38184 14.1138 2.38184C7.94858 2.38184 2.92285 7.37844 2.92285 13.5205C2.92215 15.4744 3.4379 17.3942 4.41831 19.087L3.03532 24.1071ZM6.04351 19.5347C6.16356 19.099 6.10359 18.6333 5.87706 18.2421C5.04526 16.8059 4.608 15.1772 4.6086 13.5205C4.6086 8.31743 8.87158 4.06758 14.1138 4.06758C16.6648 4.06758 19.0447 5.05316 20.8412 6.84125C22.6356 8.62737 23.6192 10.9972 23.6192 13.526C23.6192 18.729 19.3562 22.9789 14.1139 22.9789H14.1084C12.5164 22.9789 10.9521 22.5791 9.56306 21.8267C9.18711 21.6231 8.74783 21.5699 8.33415 21.6779L5.22968 22.4888L6.04351 19.5347Z" fill="black"/>
</svg>
