<svg width="25" height="24" viewBox="0 0 25 24" fill="none" xmlns="http://www.w3.org/2000/svg">
<path fill-rule="evenodd" clip-rule="evenodd" d="M10.8972 3.96555C11.871 2.99185 13.1916 2.44482 14.5686 2.44482H17.2388C17.6485 2.44482 17.9806 2.77691 17.9806 3.18655V6.74684C17.9806 7.15649 17.6485 7.48857 17.2388 7.48857H14.5686C14.5293 7.48857 14.4915 7.5042 14.4637 7.53202C14.4359 7.55984 14.4203 7.59757 14.4203 7.63692V9.56541H17.2388C17.4672 9.56541 17.6829 9.67064 17.8235 9.85067C17.964 10.0307 18.0138 10.2654 17.9584 10.487L17.0683 14.0473C16.9858 14.3775 16.6891 14.6092 16.3488 14.6092H14.4203V20.988C14.4203 21.3977 14.0882 21.7297 13.6785 21.7297H10.1182C9.7086 21.7297 9.37652 21.3977 9.37652 20.988V14.6092H7.44803C7.03838 14.6092 6.7063 14.2771 6.7063 13.8674V10.3071C6.7063 9.89749 7.03838 9.56541 7.44803 9.56541H9.37652V7.63692C9.37652 6.25989 9.92354 4.93926 10.8972 3.96555ZM14.5686 3.92828C13.585 3.92828 12.6417 4.31901 11.9462 5.01451C11.2507 5.71002 10.86 6.65332 10.86 7.63692V10.3071C10.86 10.7168 10.5279 11.0489 10.1182 11.0489H8.18975V13.1257H10.1182C10.5279 13.1257 10.86 13.4578 10.86 13.8674V20.2463H12.9368V13.8674C12.9368 13.4578 13.2689 13.1257 13.6785 13.1257H15.7696L16.2888 11.0489H13.6785C13.2689 11.0489 12.9368 10.7168 12.9368 10.3071V7.63692C12.9368 7.20413 13.1087 6.78908 13.4148 6.48306C13.7208 6.17704 14.1358 6.00512 14.5686 6.00512H16.4971V3.92828H14.5686Z" fill="black"/>
</svg>
