<svg width="26" height="26" viewBox="0 0 26 26" fill="none" xmlns="http://www.w3.org/2000/svg">
<path d="M6.47153 7.76706C6.22457 7.63409 5.9259 7.64073 5.6851 7.78456C5.4443 7.92838 5.29685 8.18821 5.29685 8.46869V18.5624C5.29685 19.0025 5.65363 19.3593 6.09373 19.3593C6.53383 19.3593 6.8906 19.0025 6.8906 18.5624V9.80283L12.6222 12.8891C12.858 13.0161 13.1419 13.0161 13.3778 12.8891L19.1094 9.80283V18.5624C19.1094 19.0025 19.4661 19.3593 19.9062 19.3593C20.3463 19.3593 20.7031 19.0025 20.7031 18.5624V8.46869C20.7031 8.18821 20.5556 7.92838 20.3149 7.78456C20.0741 7.64073 19.7754 7.63409 19.5284 7.76706L13 11.2824L6.47153 7.76706Z" fill="white"/>
<path fill-rule="evenodd" clip-rule="evenodd" d="M18.6425 4.45439C14.8883 4.11872 11.1117 4.11872 7.35749 4.45439L5.74532 4.59853C4.01598 4.75316 2.61871 6.07429 2.36755 7.79227C1.83842 11.4115 1.83842 15.0884 2.36755 18.7076C2.61871 20.4256 4.01598 21.7467 5.74532 21.9013L7.35749 22.0455C11.1117 22.3811 14.8883 22.3811 18.6425 22.0455L20.2547 21.9013C21.984 21.7467 23.3813 20.4256 23.6324 18.7076C24.1616 15.0884 24.1616 11.4115 23.6324 7.79227C23.3813 6.07429 21.984 4.75316 20.2547 4.59853L18.6425 4.45439ZM7.49943 6.0418C11.1592 5.71458 14.8408 5.71458 18.5005 6.0418L20.1127 6.18595C21.1074 6.27488 21.911 7.03473 22.0554 8.02282C22.5622 11.4891 22.5622 15.0107 22.0554 18.477C21.911 19.4651 21.1074 20.225 20.1127 20.3139L18.5005 20.4581C14.8408 20.7853 11.1592 20.7853 7.49943 20.4581L5.88725 20.3139C4.89262 20.225 4.08899 19.4651 3.94453 18.477C3.43776 15.0107 3.43776 11.4891 3.94453 8.02282C4.08899 7.03473 4.89262 6.27488 5.88725 6.18595L7.49943 6.0418Z" fill="white"/>
</svg>
