<svg width="24" height="24" viewBox="0 0 24 24" fill="none" xmlns="http://www.w3.org/2000/svg">
<path d="M15.8231 7.14228C15.8231 6.59609 16.2659 6.15331 16.8121 6.15331C17.3583 6.15331 17.801 6.59609 17.801 7.14228C17.801 7.68848 17.3583 8.13125 16.8121 8.13125C16.2659 8.13125 15.8231 7.68848 15.8231 7.14228Z" fill="black"/>
<path fill-rule="evenodd" clip-rule="evenodd" d="M11.8672 7.38953C9.27281 7.38953 7.16962 9.49272 7.16962 12.0871C7.16962 14.6815 9.27281 16.7847 11.8672 16.7847C14.4616 16.7847 16.5648 14.6815 16.5648 12.0871C16.5648 9.49272 14.4616 7.38953 11.8672 7.38953ZM8.65307 12.0871C8.65307 10.312 10.0921 8.87298 11.8672 8.87298C13.6424 8.87298 15.0814 10.312 15.0814 12.0871C15.0814 13.8623 13.6424 15.3013 11.8672 15.3013C10.0921 15.3013 8.65307 13.8623 8.65307 12.0871Z" fill="black"/>
<path fill-rule="evenodd" clip-rule="evenodd" d="M17.0675 3.02126C13.6391 2.63809 10.0953 2.63809 6.667 3.02126C4.67713 3.24366 3.07071 4.81119 2.83677 6.81141C2.42681 10.3166 2.42681 13.8577 2.83677 17.3629C3.07071 19.3631 4.67713 20.9306 6.667 21.153C10.0953 21.5362 13.6391 21.5362 17.0675 21.153C19.0573 20.9306 20.6638 19.3631 20.8977 17.3629C21.3077 13.8577 21.3077 10.3166 20.8977 6.81141C20.6638 4.81119 19.0573 3.24366 17.0675 3.02126ZM6.83177 4.49554C10.1506 4.12461 13.5839 4.12461 16.9027 4.49554C18.2181 4.64256 19.2719 5.68059 19.4243 6.98373C19.8209 10.3744 19.8209 13.7998 19.4243 17.1905C19.2719 18.4937 18.2181 19.5317 16.9027 19.6787C13.5839 20.0497 10.1506 20.0497 6.83177 19.6787C5.51633 19.5317 4.4626 18.4937 4.31018 17.1905C3.91361 13.7998 3.91361 10.3744 4.31018 6.98373C4.4626 5.68059 5.51633 4.64256 6.83177 4.49554Z" fill="black"/>
</svg>
