<svg width="26" height="26" viewBox="0 0 26 26" fill="none" xmlns="http://www.w3.org/2000/svg">
<path d="M13 19.8906C12.5599 19.8906 12.2031 20.2474 12.2031 20.6875C12.2031 21.1276 12.5599 21.4844 13 21.4844H19.375C20.4019 21.4844 21.2344 20.6519 21.2344 19.625V6.875C21.2344 5.8481 20.4019 5.01562 19.375 5.01562H13C12.5599 5.01562 12.2031 5.3724 12.2031 5.8125C12.2031 6.2526 12.5599 6.60938 13 6.60938L19.375 6.60938C19.5217 6.60938 19.6406 6.7283 19.6406 6.875L19.6406 19.625C19.6406 19.7717 19.5217 19.8906 19.375 19.8906H13Z" fill="white"/>
<path fill-rule="evenodd" clip-rule="evenodd" d="M3.70312 14.4349C3.70312 15.1684 4.29775 15.763 5.03125 15.763H9.93213C9.93907 15.8411 9.94632 15.919 9.9539 15.997L10.0113 16.5876C10.0989 17.4888 11.0558 18.0284 11.8722 17.6371C13.6086 16.805 15.2859 15.5562 16.6177 14.1657C17.1109 13.6507 17.1109 12.8386 16.6177 12.3236L16.5123 12.2136C15.1805 10.823 13.6086 9.68429 11.8722 8.85214C11.0558 8.46087 10.0989 9.00052 10.0113 9.90164L9.9539 10.4923C9.94632 10.5702 9.93907 10.6482 9.93213 10.7262L5.03125 10.7262C4.29775 10.7262 3.70312 11.3209 3.70312 12.0544V14.4349ZM11.4628 14.8764C11.4176 14.4758 11.0783 14.1693 10.671 14.1693H5.29687L5.29687 12.32H10.671C11.0918 12.32 11.4401 11.9928 11.4663 11.5727C11.4856 11.2637 11.5102 10.9549 11.5402 10.6464L11.5568 10.475C12.9432 11.1895 14.205 12.1247 15.2926 13.2446C14.8385 13.7122 14.354 14.1476 13.8428 14.5482C13.1296 15.1071 12.3644 15.5981 11.5568 16.0143L11.5402 15.8428C11.5102 15.5344 11.4856 15.2256 11.4663 14.9166C11.4655 14.9031 11.4643 14.8897 11.4628 14.8764Z" fill="white"/>
</svg>
