<svg width="22" height="23" viewBox="0 0 22 23" fill="none" xmlns="http://www.w3.org/2000/svg">
<g opacity="0.7">
<path fill-rule="evenodd" clip-rule="evenodd" d="M12.996 5.3264C12.996 3.70001 14.3144 2.38156 15.9408 2.38156C17.5672 2.38156 18.8856 3.70001 18.8856 5.3264C18.8856 6.95279 17.5672 8.27124 15.9408 8.27124C15.0713 8.27124 14.2898 7.89439 13.7507 7.2951L11.2886 8.63809L8.53353 10.2124C8.77852 10.642 8.91849 11.1392 8.91849 11.6691C8.91849 11.9377 8.88255 12.1978 8.81522 12.445L13.7507 15.1371C14.2898 14.5378 15.0713 14.1609 15.9408 14.1609C17.5672 14.1609 18.8856 15.4794 18.8856 17.1058C18.8856 18.7322 17.5672 20.0506 15.9408 20.0506C14.3144 20.0506 12.996 18.7322 12.996 17.1058C12.996 16.8372 13.0319 16.5771 13.0992 16.3299L8.16374 13.6378C7.62468 14.2371 6.84317 14.614 5.97365 14.614C4.34726 14.614 3.02881 13.2955 3.02881 11.6691C3.02881 10.0427 4.34726 8.72429 5.97365 8.72429C6.56323 8.72429 7.11235 8.89755 7.57285 9.19594L10.6259 7.45134L13.0992 6.10225C13.0319 5.85506 12.996 5.59493 12.996 5.3264ZM15.9408 3.74072C15.065 3.74072 14.3551 4.45065 14.3551 5.3264C14.3551 6.20215 15.065 6.91208 15.9408 6.91208C16.8165 6.91208 17.5265 6.20215 17.5265 5.3264C17.5265 4.45065 16.8165 3.74072 15.9408 3.74072ZM5.97365 10.0835C5.0979 10.0835 4.38797 10.7934 4.38797 11.6691C4.38797 12.5449 5.0979 13.2548 5.97365 13.2548C6.8494 13.2548 7.55933 12.5449 7.55933 11.6691C7.55933 10.7934 6.8494 10.0835 5.97365 10.0835ZM14.3551 17.1058C14.3551 16.23 15.065 15.5201 15.9408 15.5201C16.8165 15.5201 17.5265 16.23 17.5265 17.1058C17.5265 17.9815 16.8165 18.6914 15.9408 18.6914C15.065 18.6914 14.3551 17.9815 14.3551 17.1058Z" fill="#383836"/>
</g>
</svg>
