<svg width="19" height="19" viewBox="0 0 19 19" fill="none" xmlns="http://www.w3.org/2000/svg">
<g opacity="0.5">
<path fill-rule="evenodd" clip-rule="evenodd" d="M14.47 4.58518H4.11219L3.2272 2.99888C3.12787 2.82083 2.93995 2.71048 2.73606 2.71048H1.61124C1.30063 2.71048 1.04883 2.96228 1.04883 3.27289C1.04883 3.5835 1.30063 3.8353 1.61124 3.8353H2.40581L3.27919 5.40079L5.29342 9.85749L5.29549 9.86204L5.4729 10.2546L3.45059 12.4117C3.30518 12.5668 3.25966 12.7907 3.33295 12.9902C3.40624 13.1898 3.5858 13.331 3.79703 13.3551L5.64034 13.5658C7.94597 13.8293 10.2741 13.8293 12.5798 13.5658L14.4231 13.3551C14.7317 13.3199 14.9532 13.0411 14.918 12.7325C14.8827 12.4239 14.6039 12.2023 14.2953 12.2376L12.452 12.4483C10.2313 12.7021 7.98882 12.7021 5.76806 12.4483L5.03653 12.3647L6.52083 10.7814C6.53519 10.7661 6.54852 10.7502 6.56083 10.7338L7.12536 10.8072C7.91642 10.9102 8.71606 10.9303 9.51131 10.8674C11.3661 10.7207 13.0852 9.83815 14.2853 8.41637L14.7188 7.90284C14.7333 7.88559 14.7469 7.86748 14.7592 7.84861L15.5671 6.61742C16.1398 5.74474 15.5138 4.58518 14.47 4.58518ZM6.60264 9.60491C6.4786 9.58877 6.37164 9.50998 6.31942 9.39644L6.31842 9.39424L4.6533 5.71H14.47C14.6191 5.71 14.7085 5.87565 14.6267 6.00032L13.8374 7.20318L13.4258 7.69082C12.4194 8.88303 10.9779 9.62311 9.42263 9.74612C8.70531 9.80285 7.98403 9.78465 7.27049 9.69181L6.60264 9.60491Z" fill="black"/>
<path d="M4.9857 14.5211C4.36448 14.5211 3.86088 15.0247 3.86088 15.6459C3.86088 16.2671 4.36448 16.7707 4.9857 16.7707C5.60692 16.7707 6.11052 16.2671 6.11052 15.6459C6.11052 15.0247 5.60692 14.5211 4.9857 14.5211Z" fill="black"/>
<path d="M12.1096 15.6459C12.1096 15.0247 12.6132 14.5211 13.2344 14.5211C13.8556 14.5211 14.3592 15.0247 14.3592 15.6459C14.3592 16.2671 13.8556 16.7707 13.2344 16.7707C12.6132 16.7707 12.1096 16.2671 12.1096 15.6459Z" fill="black"/>
</g>
</svg>
