<svg width="26" height="26" viewBox="0 0 26 26" fill="none" xmlns="http://www.w3.org/2000/svg">
<path d="M22.4238 10.2637C22.2325 9.62624 21.85 9.11628 21.2763 8.81878C20.5538 8.43628 19.7038 8.47876 19.1088 8.58501L17.855 4.20749C17.77 3.90999 17.5363 3.67628 17.2388 3.61253C16.9413 3.54878 16.6225 3.63382 16.41 3.86757C13.3713 7.26757 12.1175 8.09628 8.76001 9.56253L6.12501 10.3276C3.80876 11.0076 2.47001 13.4513 3.12876 15.7676C3.44751 16.8938 4.19126 17.8501 5.23251 18.4238C5.89126 18.7851 6.61376 18.9762 7.33626 18.9762C7.67626 18.9762 8.03752 18.9338 8.37752 18.8488L8.65376 19.8475C8.80251 20.3788 9.10001 20.8463 9.48251 21.2288L9.92876 21.6538C10.0988 21.8025 10.3113 21.8875 10.5238 21.8875C10.7575 21.8875 10.97 21.8025 11.14 21.6325C11.4588 21.2925 11.4588 20.7613 11.0975 20.4213L10.6513 19.9963C10.4813 19.8263 10.3538 19.6138 10.29 19.3801L10.0138 18.3813L11.2463 18.02C14.7738 17.4887 16.3675 17.5312 20.6813 18.7637C20.7663 18.785 20.83 18.8063 20.915 18.8063C21.1275 18.8063 21.3613 18.7212 21.51 18.5512C21.7225 18.3387 21.8075 18.02 21.7225 17.7225L20.4688 13.3663C21.0213 13.1538 21.765 12.7712 22.19 12.07C22.53 11.5387 22.615 10.9225 22.4238 10.2637ZM6.08251 16.9575C5.44501 16.6175 4.99876 16.0226 4.78626 15.3426C4.38251 13.8976 5.21126 12.41 6.61376 11.985L8.52626 11.4325L9.39751 14.5137L9.99251 16.6387L8.08001 17.1913C7.42126 17.3825 6.69876 17.2975 6.08251 16.9575ZM14.7313 16.0225C13.775 16.0225 12.8188 16.1075 11.6925 16.2563L10.46 11.9L10.1625 10.8375C12.8825 9.60503 14.3275 8.64876 16.6863 6.14126L19.7038 16.745C17.6638 16.235 16.2188 16.0225 14.7313 16.0225ZM20.7663 11.1988C20.6388 11.4326 20.32 11.6026 20.0225 11.7301L19.5975 10.2426C19.9163 10.2001 20.2775 10.2001 20.5113 10.3276C20.6175 10.3913 20.7238 10.4763 20.8088 10.71C20.8725 10.965 20.8088 11.0926 20.7663 11.1988ZM15.39 9.7963C15.6238 10.1363 15.56 10.6038 15.22 10.8375C14.4338 11.39 13.5413 11.8788 13.4988 11.9C13.3925 11.9638 13.265 11.985 13.1588 11.985C12.8825 11.985 12.6275 11.8363 12.5 11.5813C12.3088 11.22 12.4575 10.7737 12.8188 10.5825C12.8188 10.5825 13.6688 10.1363 14.3488 9.64751C14.6675 9.37126 15.135 9.4563 15.39 9.7963Z" fill="white"/>
</svg>
