<svg width="28" height="28" viewBox="0 0 28 28" fill="none" xmlns="http://www.w3.org/2000/svg">
<path fill-rule="evenodd" clip-rule="evenodd" d="M8.74392 11.3726C8.74392 8.42437 11.1339 6.03438 14.0821 6.03438C17.0303 6.03438 19.4203 8.42437 19.4203 11.3726C19.4203 14.3208 17.0303 16.7108 14.0821 16.7108C11.1339 16.7108 8.74392 14.3208 8.74392 11.3726ZM14.0821 7.72012C12.0649 7.72012 10.4297 9.35538 10.4297 11.3726C10.4297 13.3898 12.0649 15.025 14.0821 15.025C16.0993 15.025 17.7346 13.3898 17.7346 11.3726C17.7346 9.35538 16.0993 7.72012 14.0821 7.72012Z" fill="black"/>
<path fill-rule="evenodd" clip-rule="evenodd" d="M4.55694 10.0879C4.95515 5.25696 8.99211 1.53906 13.8394 1.53906H14.3248C19.1721 1.53906 23.2091 5.25696 23.6073 10.0879C23.8212 12.683 23.0196 15.2598 21.3713 17.2756L15.9847 23.8632C15.0014 25.0658 13.1629 25.0658 12.1795 23.8632L6.79291 17.2756C5.14464 15.2598 4.34303 12.683 4.55694 10.0879ZM13.8394 3.22481C9.86943 3.22481 6.56312 6.2698 6.23699 10.2263C6.05896 12.3862 6.72611 14.5308 8.09793 16.2085L13.4845 22.7961C13.7934 23.1739 14.3708 23.1739 14.6797 22.7961L20.0663 16.2085C21.4381 14.5308 22.1053 12.3862 21.9272 10.2264C21.6011 6.2698 18.2948 3.22481 14.3248 3.22481H13.8394Z" fill="black"/>
</svg>
