<svg width="29" height="29" viewBox="0 0 29 29" fill="none" xmlns="http://www.w3.org/2000/svg">
<path d="M7.6263 2.87218C7.94939 2.50198 7.9112 1.93995 7.541 1.61686C7.17079 1.29376 6.60876 1.33195 6.28567 1.70216L4.75324 3.45803C3.88399 4.45403 3.39261 5.72394 3.36504 7.04562L3.2978 10.2695C3.28756 10.7607 3.6775 11.1673 4.16876 11.1775C4.66002 11.1878 5.06657 10.7978 5.07681 10.3066L5.14405 7.08272C5.16291 6.17842 5.49912 5.30953 6.09387 4.62806L7.6263 2.87218Z" fill="black"/>
<path fill-rule="evenodd" clip-rule="evenodd" d="M7.39878 9.14489C7.56354 6.51051 9.74817 4.45826 12.3877 4.45826H13.0489V3.56856C13.0489 2.91341 13.58 2.3823 14.2352 2.3823C14.8904 2.3823 15.4215 2.91341 15.4215 3.56856V4.45826H16.0827C18.7222 4.45826 20.9068 6.51051 21.0716 9.14489L21.3338 13.3365C21.4337 14.9346 21.9703 16.4747 22.8849 17.789C23.7114 18.9765 22.9757 20.6166 21.5392 20.789L17.4974 21.274V22.5488C17.4974 24.3505 16.0369 25.811 14.2352 25.811C12.4335 25.811 10.973 24.3505 10.973 22.5488V21.274L6.93122 20.789C5.49473 20.6166 4.75899 18.9765 5.58544 17.789C6.50012 16.4747 7.03665 14.9346 7.13661 13.3365L7.39878 9.14489ZM12.3877 6.23766C10.6878 6.23766 9.28082 7.55936 9.1747 9.25596L8.91254 13.4476C8.79225 15.3707 8.14662 17.2239 7.04595 18.8054C6.98622 18.8913 7.03939 19.0098 7.14322 19.0223L11.5771 19.5543C13.3428 19.7662 15.1276 19.7662 16.8933 19.5543L21.3272 19.0223C21.431 19.0098 21.4842 18.8913 21.4244 18.8054C20.3238 17.2239 19.6781 15.3707 19.5578 13.4476L19.2957 9.25596C19.1896 7.55936 17.7826 6.23766 16.0827 6.23766H12.3877ZM14.2352 24.0316C13.4163 24.0316 12.7524 23.3677 12.7524 22.5488V21.6591H15.718V22.5488C15.718 23.3677 15.0541 24.0316 14.2352 24.0316Z" fill="black"/>
<path d="M20.9294 1.61686C20.5592 1.93995 20.521 2.50198 20.8441 2.87218L22.3765 4.62806C22.9713 5.30953 23.3075 6.17842 23.3263 7.08272L23.3936 10.3066C23.4038 10.7978 23.8104 11.1878 24.3016 11.1775C24.7929 11.1673 25.1828 10.7607 25.1726 10.2695L25.1054 7.04562C25.0778 5.72394 24.5864 4.45403 23.7172 3.45803L22.1847 1.70216C21.8616 1.33195 21.2996 1.29376 20.9294 1.61686Z" fill="black"/>
</svg>
