<svg width="68" height="19" viewBox="0 0 68 19" fill="none" xmlns="http://www.w3.org/2000/svg">
<path opacity="0.7" d="M2.69103 14.6483V4.08113H1.37288V14.6483H2.69103ZM4.54376 14.6483H5.81797V10.1666C5.81797 8.87773 6.60153 8.02825 7.80251 8.02825C8.9742 8.02825 9.55272 8.70197 9.55272 9.93225V14.6483H10.8269V9.70523C10.8269 7.97699 9.86029 6.90051 8.19064 6.90051C7.01163 6.90051 6.19877 7.42776 5.77403 8.24795H5.74474V7.03232H4.54376V14.6483ZM15.2208 11.741C15.3452 13.6084 16.8977 14.824 19.1386 14.824C21.5698 14.824 23.093 13.6157 23.093 11.6825C23.093 10.1666 22.2069 9.32443 20.0174 8.7752L18.9116 8.48228C17.4763 8.10881 16.8904 7.63281 16.8904 6.8346C16.8904 5.80205 17.8424 5.09171 19.2118 5.09171C20.5885 5.09171 21.5039 5.7874 21.6211 6.92247H22.9392C22.8807 5.1503 21.3575 3.90538 19.2558 3.90538C17.0588 3.90538 15.521 5.13565 15.521 6.89318C15.521 8.3285 16.3851 9.18529 18.3331 9.68326L19.6878 10.0348C21.1085 10.4009 21.7309 10.9501 21.7309 11.8436C21.7309 12.8834 20.6911 13.6377 19.2631 13.6377C17.7545 13.6377 16.6707 12.8834 16.5462 11.741H15.2208ZM24.8432 5.19424V7.03232H23.7082V8.07952H24.8432V12.6711C24.8432 14.1357 25.3851 14.7069 26.7838 14.7069C27.0841 14.7069 27.4356 14.6849 27.5894 14.6483V13.5791C27.5015 13.5938 27.2086 13.6157 27.0621 13.6157C26.4104 13.6157 26.1174 13.3008 26.1174 12.6052V8.07952H27.5967V7.03232H26.1174V5.19424H24.8432ZM31.8953 14.7801C33.997 14.7801 35.4177 13.2642 35.4177 10.8403C35.4177 8.40905 33.997 6.90051 31.8953 6.90051C29.7863 6.90051 28.3656 8.40905 28.3656 10.8403C28.3656 13.2642 29.7863 14.7801 31.8953 14.7801ZM31.8953 13.6597C30.5479 13.6597 29.6618 12.6344 29.6618 10.8403C29.6618 9.04616 30.5479 8.02093 31.8953 8.02093C33.2428 8.02093 34.1215 9.04616 34.1215 10.8403C34.1215 12.6344 33.2428 13.6597 31.8953 13.6597ZM43.0337 9.52948C42.8726 8.16007 41.7375 6.90051 39.8335 6.90051C37.7318 6.90051 36.3331 8.43834 36.3331 10.8403C36.3331 13.2935 37.7391 14.7801 39.8481 14.7801C41.5764 14.7801 42.8506 13.7109 43.0483 12.1951H41.7961C41.5764 13.1104 40.8953 13.6597 39.8555 13.6597C38.5373 13.6597 37.6293 12.6125 37.6293 10.8403C37.6293 9.11206 38.5227 8.02093 39.8408 8.02093C40.9613 8.02093 41.6057 8.70197 41.7888 9.52948H43.0337ZM45.5601 10.4156V4.08113H44.2859V14.6483H45.5601V11.7777L46.2705 11.1039L49.0972 14.6483H50.5764L47.1712 10.3204L50.4739 7.03232H48.9287L45.5601 10.4156Z" fill="black"/>
<circle opacity="0.7" cx="62.588" cy="9.64685" r="5.24916" fill="#00C643"/>
</svg>
