<svg width="25" height="26" viewBox="0 0 25 26" fill="none" xmlns="http://www.w3.org/2000/svg">
<g opacity="0.5">
<path d="M19.64 10.052C19.5575 9.22702 18.8563 8.58762 18.0106 8.58762H16.505V8.21636C16.505 5.80324 14.7312 3.84387 12.4212 3.84387H12.3388C10.0494 3.84387 8.255 5.80324 8.255 8.21636V8.58762H6.74936C5.90374 8.58762 5.22313 9.22702 5.12001 10.052L3.92375 21.4782C3.90312 21.7051 3.965 21.9526 4.13 22.1176C4.295 22.2826 4.50125 22.3857 4.74875 22.3857H20.0112C20.2381 22.3857 20.465 22.2826 20.63 22.1176C20.795 21.9526 20.8569 21.7051 20.8362 21.4782L19.64 10.052ZM9.905 8.21636C9.905 6.71074 10.9569 5.49387 12.3388 5.49387H12.4212C13.8031 5.49387 14.855 6.71074 14.855 8.21636V8.58762H9.905V8.21636ZM5.65625 20.7564L6.74936 10.2376H17.9694L19.0625 20.7564H5.65625Z" fill="black"/>
</g>
</svg>
