<svg width="64" height="64" viewBox="0 0 64 64" fill="none" xmlns="http://www.w3.org/2000/svg">
<path d="M39.4045 37.4338L46.4713 26.9819C47.1707 25.9524 45.8442 24.8334 44.8312 25.5719L37.2097 30.9433C36.9592 31.1177 36.6545 31.2119 36.3414 31.2119C36.0283 31.2119 35.7236 31.1177 35.4731 30.9433L29.8293 27.0043C28.141 25.8405 25.7291 26.2657 24.5955 27.8995L17.5287 38.3514C16.8293 39.3809 18.1558 40.5 19.1688 39.7614L26.7903 34.39C27.0408 34.2157 27.3455 34.1214 27.6586 34.1214C27.9717 34.1214 28.2764 34.2157 28.5269 34.39L34.1707 38.2619C35.859 39.4928 38.2709 39.0676 39.4045 37.4338Z" fill="black"/>
<path fill-rule="evenodd" clip-rule="evenodd" d="M32 6C17.6406 6 6 17.6406 6 32C6 39.3737 9.07185 46.0323 14 50.7617V57.3333C14 57.9762 14.309 58.5799 14.8306 58.9558C15.3521 59.3317 16.0226 59.434 16.6325 59.2307L24.0449 56.7599C26.5545 57.5656 29.2283 58 32 58C46.3594 58 58 46.3594 58 32C58 17.6406 46.3594 6 32 6ZM10 32C10 19.8497 19.8497 10 32 10C44.1503 10 54 19.8497 54 32C54 44.1503 44.1503 54 32 54C29.4412 54 26.9886 53.564 24.7097 52.7639C24.2911 52.6169 23.8355 52.6133 23.4147 52.7536L18 54.5585V49.8889C18 49.32 17.7577 48.778 17.3338 48.3986C12.8298 44.3674 10 38.5155 10 32Z" fill="black"/>
</svg>
