<svg width="64" height="64" viewBox="0 0 64 64" fill="none" xmlns="http://www.w3.org/2000/svg">
<path d="M42.6667 18.6667C42.6667 17.1939 43.8606 16 45.3333 16C46.8061 16 48 17.1939 48 18.6667C48 20.1394 46.8061 21.3333 45.3333 21.3333C43.8606 21.3333 42.6667 20.1394 42.6667 18.6667Z" fill="white"/>
<path fill-rule="evenodd" clip-rule="evenodd" d="M32 19.3333C25.0044 19.3333 19.3333 25.0044 19.3333 32C19.3333 38.9956 25.0044 44.6667 32 44.6667C38.9956 44.6667 44.6667 38.9956 44.6667 32C44.6667 25.0044 38.9956 19.3333 32 19.3333ZM23.3333 32C23.3333 27.2135 27.2135 23.3333 32 23.3333C36.7865 23.3333 40.6667 27.2135 40.6667 32C40.6667 36.7865 36.7865 40.6667 32 40.6667C27.2135 40.6667 23.3333 36.7865 23.3333 32Z" fill="white"/>
<path fill-rule="evenodd" clip-rule="evenodd" d="M46.022 7.55471C36.7778 6.52154 27.2223 6.52154 17.9781 7.55471C12.6126 8.15438 8.28102 12.3811 7.65021 17.7745C6.54478 27.226 6.54478 36.774 7.65021 46.2255C8.28102 51.6189 12.6126 55.8456 17.9781 56.4453C27.2223 57.4785 36.7778 57.4785 46.022 56.4453C51.3875 55.8456 55.7191 51.6189 56.3499 46.2255C57.4553 36.7741 57.4553 27.2259 56.3499 17.7745C55.7191 12.3811 51.3875 8.15438 46.022 7.55471ZM18.4224 11.53C27.3713 10.5298 36.6288 10.5298 45.5777 11.53C49.1247 11.9264 51.966 14.7254 52.377 18.2392C53.4463 27.3819 53.4463 36.6181 52.377 45.7608C51.966 49.2746 49.1247 52.0736 45.5777 52.47C36.6288 53.4702 27.3713 53.4702 18.4224 52.47C14.8754 52.0736 12.0341 49.2746 11.6231 45.7608C10.5538 36.6181 10.5538 27.3819 11.6231 18.2392C12.0341 14.7254 14.8754 11.9264 18.4224 11.53Z" fill="white"/>
</svg>
