<svg width="64" height="64" viewBox="0 0 64 64" fill="none" xmlns="http://www.w3.org/2000/svg">
<path d="M23.6959 19.1196C24.1838 19.1327 24.7247 19.1591 25.2393 20.3014C25.5806 21.0619 26.1554 22.4619 26.6237 23.6023C26.9881 24.4898 27.288 25.22 27.363 25.3695C27.5345 25.7108 27.6401 26.1047 27.4158 26.5642C27.3894 26.6184 27.3644 26.6702 27.3404 26.7201C27.1605 27.0934 27.0325 27.3591 26.73 27.7065C26.6056 27.8493 26.476 28.0058 26.3469 28.1618C26.1198 28.4362 25.8943 28.7088 25.7009 28.9014C25.358 29.2425 25.0017 29.6104 25.3974 30.2931C25.7933 30.9757 27.1784 33.221 29.2231 35.0329C31.4213 36.99 33.3328 37.8147 34.2991 38.2316C34.4867 38.3125 34.6387 38.3781 34.7502 38.4336C35.4363 38.7749 35.8451 38.7224 36.2408 38.2629C36.6368 37.8032 37.9557 36.267 38.4176 35.5844C38.8661 34.9017 39.3277 35.0068 39.961 35.243C40.5941 35.4793 43.9711 37.1337 44.657 37.475C44.7926 37.5425 44.9194 37.6033 45.0369 37.6597C45.5142 37.8885 45.8386 38.0441 45.9762 38.276C46.1477 38.5648 46.1476 39.9304 45.5805 41.5322C45.0002 43.134 42.2035 44.6702 40.937 44.7883C40.8171 44.7996 40.6978 44.8141 40.575 44.8289C39.4145 44.9693 37.9412 45.1475 32.6923 43.0815C26.2247 40.5381 21.9553 34.2277 21.0921 32.9519C21.0239 32.8512 20.977 32.7819 20.9519 32.7482L20.9373 32.7287C20.5446 32.2032 18.1421 28.9884 18.1421 25.6716C18.1421 22.4982 19.7053 20.846 20.4184 20.0925C20.4636 20.0447 20.5053 20.0005 20.5431 19.9599C21.1762 19.2772 21.9151 19.1065 22.3767 19.1065C22.8385 19.1065 23.3002 19.1065 23.6959 19.1196Z" fill="white"/>
<path fill-rule="evenodd" clip-rule="evenodd" d="M5.82448 56.8838C5.6063 57.6758 6.32761 58.4068 7.1224 58.1992L19.4086 54.99C23.2869 57.0908 27.6533 58.2068 32.099 58.2068H32.1122C46.7415 58.2068 58.6667 46.3506 58.6667 31.7767C58.6667 24.7129 55.9094 18.0692 50.8968 13.0798C45.8841 8.09058 39.2223 5.33334 32.1119 5.33334C17.4829 5.33334 5.55762 17.1895 5.55762 31.7636C5.55596 36.4 6.77974 40.9552 9.10611 44.972L5.82448 56.8838ZM12.9624 46.0344C13.2473 45.0004 13.105 43.8954 12.5675 42.9673C10.5937 39.5594 9.55621 35.6946 9.55762 31.7636C9.55762 19.4176 19.673 9.33334 32.1119 9.33334C38.165 9.33334 43.8122 11.672 48.075 15.9148C52.3329 20.153 54.6667 25.7763 54.6667 31.7767C54.6667 44.1225 44.5514 54.2068 32.1122 54.2068H32.099C28.3216 54.2068 24.6097 53.2582 21.3138 51.4729C20.4217 50.9897 19.3794 50.8635 18.3978 51.1199L11.0314 53.044L12.9624 46.0344Z" fill="white"/>
</svg>
